<?xml version="1.0" encoding="iso-8859-1"?>
<!-- Uploaded to: SVG Repo, www.svgrepo.com, Generator: SVG Repo Mixer Tools -->
<svg height="800px" width="800px" version="1.1" id="Layer_1" xmlns="http://www.w3.org/2000/svg" xmlns:xlink="http://www.w3.org/1999/xlink" 
	 viewBox="0 0 512 512" xml:space="preserve">
<path style="fill:#4FC0E8;" d="M512,256.006C512,397.402,397.394,512.004,256.004,512C114.606,512.004,0,397.402,0,256.006
	C-0.007,114.61,114.606,0,256.004,0C397.394,0,512,114.614,512,256.006z"/>
<path style="fill:#3DAED9;" d="M507.562,303.623L295.573,91.636c-0.636-0.638-1.396-1.147-2.239-1.499
	c-0.837-0.349-1.743-0.538-2.668-0.538H138.133c-3.828,0-6.933,3.102-6.933,6.933v318.933c0,2.349,1.243,4.321,3.027,5.574
	c0.109,0.155,60.143,60.231,88.795,88.85c10.798,1.389,21.806,2.109,32.981,2.108C381.121,512.003,485.246,422.258,507.562,303.623z
	"/>
<g>
	<path style="fill:#F4F6F9;" d="M380.261,177.062c-0.352-0.844-0.861-1.602-1.498-2.238l-83.189-83.189
		c-0.636-0.637-1.395-1.146-2.239-1.498c-0.84-0.349-1.744-0.538-2.669-0.538H138.133c-3.829,0-6.933,3.101-6.933,6.933v318.933
		c0,3.833,3.104,6.933,6.933,6.933h235.733c3.829,0,6.933-3.101,6.933-6.933V179.733C380.8,178.805,380.611,177.901,380.261,177.062
		z M297.6,113.27l59.53,59.53H297.6V113.27z M145.067,408.533V103.467h138.667v76.267c0,3.833,3.104,6.933,6.933,6.933h76.267
		v221.867H145.067z"/>
	<path style="fill:#F4F6F9;" d="M308.139,221.495l-71.998,15.715c-2.763,0.603-4.882,2.823-5.356,5.613l-11.506,67.855
		l-11.429-2.097c-6.669-1.232-13.42,0.244-18.992,4.15c-5.667,3.968-9.431,9.947-10.599,16.846
		c-2.377,14.022,6.93,27.497,20.749,30.029c1.428,0.265,2.864,0.393,4.3,0.393c5.047,0,10.058-1.604,14.452-4.678
		c5.779-4.043,9.733-10.129,10.847-16.704l2.853-16.831l6.243-36.815l57.394-12.528l-4.347,25.635l-11.43-2.097
		c-6.676-1.246-13.417,0.244-18.989,4.15c-5.667,3.968-9.435,9.947-10.603,16.846c-2.383,14.029,6.927,27.503,20.753,30.035
		c1.425,0.264,2.858,0.393,4.289,0.393c5.051,0,10.065-1.604,14.463-4.686c5.776-4.043,9.73-10.129,10.844-16.704l1.056-6.229l0,0
		l15.323-90.364c0.386-2.268-0.383-4.583-2.048-6.175C312.739,221.651,310.394,221.002,308.139,221.495z M214.934,336.302
		c-0.491,2.891-2.407,5.756-5.125,7.658c-2.583,1.808-5.522,2.518-8.301,2.011c-6.399-1.171-10.698-7.489-9.581-14.077
		c0.545-3.21,2.278-5.979,4.885-7.807c1.93-1.355,4.178-2.059,6.477-2.059c0.684,0,1.371,0.067,2.055,0.19l11.615,2.133
		L214.934,336.302z M240.201,270.238l3.473-20.481l57.393-12.526l-3.473,20.479L240.201,270.238z M281.279,331.359
		c-2.579,1.808-5.532,2.532-8.301,2.018c-6.402-1.171-10.701-7.489-9.581-14.083c0.545-3.21,2.282-5.979,4.885-7.807
		c1.933-1.355,4.181-2.059,6.48-2.059c0.681,0,1.367,0.067,2.051,0.19l11.615,2.133l-2.025,11.951
		C285.91,326.593,283.994,329.457,281.279,331.359z"/>
</g>
</svg>